<svg xmlns="http://www.w3.org/2000/svg" width="242" height="29" viewBox="0 0 242 29"><path d="M25.558 2.812c-2.142 0-2.694-.552-2.694-2.694 0 2.142-.552 2.694-2.694 2.694 2.142 0 2.694.552 2.694 2.694 0-2.142.552-2.694 2.694-2.694Zm2.968-.526c0 4.922 1.265 6.188 6.187 6.188-4.922 0-6.188 1.265-6.188 6.187 0-4.922-1.265-6.187-6.187-6.187 4.922 0 6.188-1.266 6.188-6.188Zm210.927 13.739a3.923 3.923 0 0 0-2.057-.565h-13.598a.54.54 0 0 1-.398-.154.496.496 0 0 1-.153-.363V10.59a.526.526 0 0 1 .551-.547h17.707a3.681 3.681 0 0 0-3.681-3.682h-11.922l-2.655 3.682h-3.652v5.02c0 .752.184 1.436.551 2.056.364.62.856 1.116 1.476 1.489.62.376 1.304.564 2.056.564h13.568c.163 0 .3.051.411.154a.472.472 0 0 1 .167.363h.03v4.354a.526.526 0 0 1-.552.547h-17.707a3.681 3.681 0 0 0 3.681 3.681h11.922l2.656-3.681h3.651v-5.02c0-.753-.188-1.433-.564-2.053a4.369 4.369 0 0 0-1.492-1.492h.004Zm-41.581 11.01V6.366h3.652v16.762L215.61 6.365h4.832l-18.033 21.466a1.24 1.24 0 0 1-.945.44h-2.356a1.234 1.234 0 0 1-1.236-1.235ZM168.487 6.918c.62.363 1.116.86 1.492 1.488.377.629.565 1.317.565 2.07v13.687c0 .749-.193 1.441-.565 2.07a4.179 4.179 0 0 1-1.492 1.488 3.949 3.949 0 0 1-2.053.552h-17.797v-18.22h3.618l2.66-3.687h11.519c.749 0 1.433.184 2.053.552Zm-1.796 17.523a.53.53 0 0 0 .167-.397V10.594a.508.508 0 0 0-.167-.393.582.582 0 0 0-.41-.154h-13.449a.582.582 0 0 0-.41.154.515.515 0 0 0-.167.393v13.449c0 .162.056.295.167.397.111.099.248.15.41.15h13.449a.598.598 0 0 0 .41-.15Zm11.156-14.24a.537.537 0 0 0-.153.394h-.005v8.63l2.63-3.764h10.575v3.802h-12.653a.526.526 0 0 0-.552.547v8.424l2.63-3.643h13.803v3.681h-20.11V10.047h3.656l2.655-3.682h13.804v3.682h-15.882a.526.526 0 0 0-.398.154ZM31.45 28.273 13.419 6.806a1.241 1.241 0 0 0-.945-.44h-2.356c-.684 0-1.236.551-1.236 1.235v20.671h3.652v-5.32a.525.525 0 0 1 .552-.547h8.607l4.93 5.867h4.829Zm-16.262-9.01-2.655 2.857V11.505l6.517 7.757h-3.862ZM0 6.365v21.907h3.622V6.365H0Zm59.87 2.083a4.397 4.397 0 0 0-1.493-1.488 3.859 3.859 0 0 0-2.052-.564H44.8l-2.638 3.656h-3.634v18.22h3.651v-7.085c0-.163.052-.295.154-.394a.528.528 0 0 1 .402-.158l13.585-.03c.753 0 1.437-.184 2.053-.547a4.228 4.228 0 0 0 1.492-1.492 3.901 3.901 0 0 0 .565-2.04v-6.02c0-.753-.188-1.438-.565-2.058h.005Zm-3.118 7.928a.502.502 0 0 1-.166.394.598.598 0 0 1-.411.154H45.63l-3.45 3.711v-10.04c0-.141.055-.27.166-.38a.52.52 0 0 1 .38-.167h13.449c.158 0 .295.055.41.166.112.111.167.24.167.38v5.782Zm27.123-9.463a4.217 4.217 0 0 1 1.489 1.492 3.95 3.95 0 0 1 .564 2.07v17.797h-3.682v-7.517H68.234c-.167 0-.3.051-.402.158a.528.528 0 0 0-.159.402v6.957h-3.651V10.475c0-.146.008-.287.02-.423h3.618l2.656-3.686h11.503a3.99 3.99 0 0 1 2.056.547ZM71.07 17.107h11.177v-6.512a.517.517 0 0 0-.166-.398.599.599 0 0 0-.411-.15H68.221a.563.563 0 0 0-.38.15.516.516 0 0 0-.168.398v10.16h.005l3.39-3.648Zm39.395 2.95a4.235 4.235 0 0 0 1.493-1.491c.372-.629.56-1.309.56-2.04v-6.02a3.92 3.92 0 0 0-.56-2.058 4.406 4.406 0 0 0-1.493-1.488 3.88 3.88 0 0 0-2.052-.564H96.888l-2.639 3.656H90.61v18.22h3.652v-7.08a.535.535 0 0 1 .552-.557h.008l7.094-.017 6.402 7.654h4.109v-.85l-5.743-6.813h1.728a4.03 4.03 0 0 0 2.052-.551Zm-12.76-3.133-3.442 3.703v-4.165h.004c-.004-.026-.004-.056-.004-.086v-5.781c0-.141.056-.27.167-.38a.526.526 0 0 1 .38-.167h13.449c.162 0 .299.055.41.166.112.111.167.24.167.38v5.782a.499.499 0 0 1-.167.394.582.582 0 0 1-.41.154H97.704Zm39.139-10.011a4.223 4.223 0 0 1 1.489 1.492c.376.629.564 1.317.564 2.07v17.797h-3.682v-7.517h-14.012a.534.534 0 0 0-.561.556v6.961h-3.651V10.475c0-.146.008-.287.021-.423h3.618l2.659-3.686h11.499c.752 0 1.436.183 2.056.547Zm-12.806 10.194h11.177v-6.512a.517.517 0 0 0-.166-.398.6.6 0 0 0-.411-.15h-13.448a.564.564 0 0 0-.381.15.517.517 0 0 0-.167.398v10.16h.005l3.391-3.648Z"/></svg>
