<svg xmlns="http://www.w3.org/2000/svg" width="347" height="318" viewBox="0 0 347 318" fill="none"><g clip-path="url(#a)"><path fill="#03020A" d="M0 0h347v318H0z"/><g filter="url(#b)"><ellipse cx="501.664" cy="321.666" fill="url(#c)" rx="561.745" ry="524.467" transform="rotate(-30 501.664 321.666)"/></g><g filter="url(#d)" style="mix-blend-mode:overlay"><ellipse cx="501.664" cy="321.666" fill="url(#e)" rx="561.745" ry="524.467" transform="rotate(-30 501.664 321.666)"/></g><g fill="#DEE0FC" style="mix-blend-mode:overlay"><path d="M14.004 303.226h-7.12v7.12h7.12v-7.12ZM14.004 280.897h-7.12v6.396h7.12v-6.396ZM14.004 258.568h-7.12v5.672h7.12v-5.672ZM14.004 236.243h-7.12v4.949h7.12v-4.949ZM14.004 213.914h-7.12v4.225h7.12v-4.225ZM14.004 191.589h-7.12v3.501h7.12v-3.501ZM14.004 169.26h-7.12v2.777h7.12v-2.777ZM14.004 146.207h-7.12v2.777h7.12v-2.777ZM14.004 123.158h-7.12v3.502h7.12v-3.502ZM14.004 100.105h-7.12v4.226h7.12v-4.226ZM14.004 77.052h-7.12v4.95h7.12v-4.95ZM14.004 54h-7.12v5.672h7.12V54ZM14.004 30.95h-7.12v6.397h7.12v-6.396ZM14.004 7.898h-7.12v7.12h7.12v-7.12ZM36.333 303.226h-6.397v7.12h6.397v-7.12ZM36.333 280.897h-6.397v6.396h6.397v-6.396ZM36.333 258.568h-6.397v5.672h6.397v-5.672ZM36.333 236.243h-6.397v4.949h6.397v-4.949ZM36.333 213.914h-6.397v4.225h6.397v-4.225ZM36.333 191.589h-6.397v3.501h6.397v-3.501ZM36.333 169.26h-6.397v2.777h6.397v-2.777ZM36.333 146.207h-6.397v2.777h6.397v-2.777ZM36.333 123.158h-6.397v3.502h6.397v-3.502ZM36.333 100.105h-6.397v4.226h6.397v-4.226ZM36.333 77.052h-6.397v4.95h6.397v-4.95ZM36.333 54h-6.397v5.672h6.397V54ZM36.333 30.95h-6.397v6.397h6.397v-6.396ZM36.333 7.898h-6.397v7.12h6.397v-7.12ZM58.657 303.226h-5.672v7.12h5.672v-7.12ZM58.657 280.897h-5.672v6.396h5.672v-6.396ZM58.657 258.568h-5.672v5.672h5.672v-5.672ZM58.657 236.243h-5.672v4.949h5.672v-4.949ZM58.657 213.914h-5.672v4.225h5.672v-4.225ZM58.657 191.589h-5.672v3.501h5.672v-3.501ZM58.657 169.26h-5.672v2.777h5.672v-2.777ZM58.657 146.207h-5.672v2.777h5.672v-2.777ZM58.657 123.158h-5.672v3.502h5.672v-3.502ZM58.657 100.105h-5.672v4.226h5.672v-4.226ZM58.657 77.052h-5.672v4.95h5.672v-4.95ZM58.657 54h-5.672v5.672h5.672V54ZM58.657 30.95h-5.672v6.397h5.672v-6.396ZM58.657 7.898h-5.672v7.12h5.672v-7.12ZM80.987 303.226h-4.95v7.12h4.95v-7.12ZM80.987 280.897h-4.95v6.396h4.95v-6.396ZM80.987 258.568h-4.95v5.672h4.95v-5.672ZM80.987 236.243h-4.95v4.949h4.95v-4.949ZM80.987 213.914h-4.95v4.225h4.95v-4.225ZM80.987 191.589h-4.95v3.501h4.95v-3.501ZM80.987 169.26h-4.95v2.777h4.95v-2.777ZM80.987 146.207h-4.95v2.777h4.95v-2.777ZM80.987 123.158h-4.95v3.502h4.95v-3.502ZM80.987 100.105h-4.95v4.226h4.95v-4.226ZM80.987 77.052h-4.95v4.95h4.95v-4.95ZM80.987 54h-4.95v5.672h4.95V54ZM80.987 30.95h-4.95v6.397h4.95v-6.396ZM80.987 7.898h-4.95v7.12h4.95v-7.12ZM103.315 303.226H99.09v7.12h4.225v-7.12ZM103.315 280.897H99.09v6.396h4.225v-6.396ZM103.315 258.568H99.09v5.672h4.225v-5.672ZM103.315 236.243H99.09v4.949h4.225v-4.949ZM103.315 213.914H99.09v4.225h4.225v-4.225ZM103.315 191.589H99.09v3.501h4.225v-3.501ZM103.315 169.26H99.09v2.777h4.225v-2.777ZM103.315 146.207H99.09v2.777h4.225v-2.777ZM103.315 123.158H99.09v3.502h4.225v-3.502ZM103.315 100.105H99.09v4.226h4.225v-4.226ZM103.315 77.052H99.09v4.95h4.225v-4.95ZM103.315 54H99.09v5.672h4.225V54ZM103.315 30.95H99.09v6.397h4.225v-6.396ZM103.315 7.898H99.09v7.12h4.225v-7.12ZM125.645 303.226h-3.502v7.12h3.502v-7.12ZM125.645 280.897h-3.502v6.396h3.502v-6.396ZM125.645 258.568h-3.502v5.672h3.502v-5.672ZM125.645 236.243h-3.502v4.949h3.502v-4.949ZM125.645 213.914h-3.502v4.225h3.502v-4.225ZM125.645 191.589h-3.502v3.501h3.502v-3.501ZM125.645 169.26h-3.502v2.777h3.502v-2.777ZM125.645 146.207h-3.502v2.777h3.502v-2.777ZM125.645 123.158h-3.502v3.502h3.502v-3.502ZM125.645 100.105h-3.502v4.226h3.502v-4.226ZM125.645 77.052h-3.502v4.95h3.502v-4.95ZM125.645 54h-3.502v5.672h3.502V54ZM125.645 30.95h-3.502v6.397h3.502v-6.396ZM125.645 7.898h-3.502v7.12h3.502v-7.12ZM147.97 303.226h-2.778v7.12h2.778v-7.12ZM147.97 280.897h-2.778v6.396h2.778v-6.396ZM147.97 258.568h-2.778v5.672h2.778v-5.672ZM147.97 236.243h-2.778v4.949h2.778v-4.949ZM147.97 213.914h-2.778v4.225h2.778v-4.225ZM147.97 191.589h-2.778v3.501h2.778v-3.501ZM147.97 169.26h-2.778v2.777h2.778v-2.777ZM147.97 146.207h-2.778v2.777h2.778v-2.777ZM147.97 123.158h-2.778v3.502h2.778v-3.502ZM147.97 100.105h-2.778v4.226h2.778v-4.226ZM147.97 77.052h-2.778v4.95h2.778v-4.95ZM147.97 54h-2.778v5.672h2.778V54ZM147.97 30.95h-2.778v6.397h2.778v-6.396ZM147.97 7.898h-2.778v7.12h2.778v-7.12Z"/></g><g fill="#DEE0FC" style="mix-blend-mode:overlay"><path d="M346.619 303.226h8.568v7.12h-8.568v-7.12ZM346.619 280.897h8.568v6.396h-8.568v-6.396ZM346.619 258.568h8.568v5.672h-8.568v-5.672ZM346.619 236.243h8.568v4.949h-8.568v-4.949ZM346.619 213.914h8.568v4.225h-8.568v-4.225ZM346.619 191.589h8.568v3.501h-8.568v-3.501ZM346.619 169.26h8.568v2.777h-8.568v-2.777ZM346.619 146.207h8.568v2.777h-8.568v-2.777ZM346.619 123.158h8.568v3.502h-8.568v-3.502ZM346.619 100.105h8.568v4.226h-8.568v-4.226ZM346.619 77.052h8.568v4.95h-8.568v-4.95ZM346.619 54h8.568v5.672h-8.568V54ZM346.619 30.95h8.568v6.397h-8.568v-6.396ZM346.619 7.898h8.568v7.12h-8.568v-7.12ZM324.294 303.226h7.844v7.12h-7.844v-7.12ZM324.294 280.897h7.844v6.396h-7.844v-6.396ZM324.294 258.568h7.844v5.672h-7.844v-5.672ZM324.294 236.243h7.844v4.949h-7.844v-4.949ZM324.294 213.914h7.844v4.225h-7.844v-4.225ZM324.294 191.589h7.844v3.501h-7.844v-3.501ZM324.294 169.26h7.844v2.777h-7.844v-2.777ZM324.294 146.207h7.844v2.777h-7.844v-2.777ZM324.294 123.158h7.844v3.502h-7.844v-3.502ZM324.294 100.105h7.844v4.226h-7.844v-4.226ZM324.294 77.052h7.844v4.95h-7.844v-4.95ZM324.294 54h7.844v5.672h-7.844V54ZM324.294 30.95h7.844v6.397h-7.844v-6.396ZM324.294 7.898h7.844v7.12h-7.844v-7.12ZM301.965 303.226h7.121v7.12h-7.121v-7.12ZM301.965 280.897h7.121v6.396h-7.121v-6.396ZM301.965 258.568h7.121v5.672h-7.121v-5.672ZM301.965 236.243h7.121v4.949h-7.121v-4.949ZM301.965 213.914h7.121v4.225h-7.121v-4.225ZM301.965 191.589h7.121v3.501h-7.121v-3.501ZM301.965 169.26h7.121v2.777h-7.121v-2.777ZM301.965 146.207h7.121v2.777h-7.121v-2.777ZM301.965 123.158h7.121v3.502h-7.121v-3.502ZM301.965 100.105h7.121v4.226h-7.121v-4.226ZM301.965 77.052h7.121v4.95h-7.121v-4.95ZM301.965 54h7.121v5.672h-7.121V54ZM301.965 30.95h7.121v6.397h-7.121v-6.396ZM301.965 7.898h7.121v7.12h-7.121v-7.12ZM279.636 303.226h6.396v7.12h-6.396v-7.12ZM279.636 280.897h6.396v6.396h-6.396v-6.396ZM279.636 258.568h6.396v5.672h-6.396v-5.672ZM279.636 236.243h6.396v4.949h-6.396v-4.949ZM279.636 213.914h6.396v4.225h-6.396v-4.225ZM279.636 191.589h6.396v3.501h-6.396v-3.501ZM279.636 169.26h6.396v2.777h-6.396v-2.777ZM279.636 146.207h6.396v2.777h-6.396v-2.777ZM279.636 123.158h6.396v3.502h-6.396v-3.502ZM279.636 100.105h6.396v4.226h-6.396v-4.226ZM279.636 77.052h6.396v4.95h-6.396v-4.95ZM279.636 54h6.396v5.672h-6.396V54ZM279.636 30.95h6.396v6.397h-6.396v-6.396ZM279.636 7.898h6.396v7.12h-6.396v-7.12ZM257.311 303.226h5.673v7.12h-5.673v-7.12ZM257.311 280.897h5.673v6.396h-5.673v-6.396ZM257.311 258.568h5.673v5.672h-5.673v-5.672ZM257.311 236.243h5.673v4.949h-5.673v-4.949ZM257.311 213.914h5.673v4.225h-5.673v-4.225ZM257.311 191.589h5.673v3.501h-5.673v-3.501ZM257.311 169.26h5.673v2.777h-5.673v-2.777ZM257.311 146.207h5.673v2.777h-5.673v-2.777ZM257.311 123.158h5.673v3.502h-5.673v-3.502ZM257.311 100.105h5.673v4.226h-5.673v-4.226ZM257.311 77.052h5.673v4.95h-5.673v-4.95ZM257.311 54h5.673v5.672h-5.673V54ZM257.311 30.95h5.673v6.397h-5.673v-6.396ZM257.311 7.898h5.673v7.12h-5.673v-7.12ZM234.982 303.226h4.949v7.12h-4.949v-7.12ZM234.982 280.897h4.949v6.396h-4.949v-6.396ZM234.982 258.568h4.949v5.672h-4.949v-5.672ZM234.982 236.243h4.949v4.949h-4.949v-4.949ZM234.982 213.914h4.949v4.225h-4.949v-4.225ZM234.982 191.589h4.949v3.501h-4.949v-3.501ZM234.982 169.26h4.949v2.777h-4.949v-2.777ZM234.982 146.207h4.949v2.777h-4.949v-2.777ZM234.982 123.158h4.949v3.502h-4.949v-3.502ZM234.982 100.105h4.949v4.226h-4.949v-4.226ZM234.982 77.052h4.949v4.95h-4.949v-4.95ZM234.982 54h4.949v5.672h-4.949V54ZM234.982 30.95h4.949v6.397h-4.949v-6.396ZM234.982 7.898h4.949v7.12h-4.949v-7.12ZM212.653 303.226h4.225v7.12h-4.225v-7.12ZM212.653 280.897h4.225v6.396h-4.225v-6.396ZM212.653 258.568h4.225v5.672h-4.225v-5.672ZM212.653 236.243h4.225v4.949h-4.225v-4.949ZM212.653 213.914h4.225v4.225h-4.225v-4.225ZM212.653 191.589h4.225v3.501h-4.225v-3.501ZM212.653 169.26h4.225v2.777h-4.225v-2.777ZM212.653 146.207h4.225v2.777h-4.225v-2.777ZM212.653 123.158h4.225v3.502h-4.225v-3.502ZM212.653 100.105h4.225v4.226h-4.225v-4.226ZM212.653 77.052h4.225v4.95h-4.225v-4.95ZM212.653 54h4.225v5.672h-4.225V54ZM212.653 30.95h4.225v6.397h-4.225v-6.396ZM212.653 7.898h4.225v7.12h-4.225v-7.12ZM190.324 303.226h3.501v7.12h-3.501v-7.12ZM190.324 280.897h3.501v6.396h-3.501v-6.396ZM190.324 258.568h3.501v5.672h-3.501v-5.672ZM190.324 236.243h3.501v4.949h-3.501v-4.949ZM190.324 213.914h3.501v4.225h-3.501v-4.225ZM190.324 191.589h3.501v3.501h-3.501v-3.501ZM190.324 169.26h3.501v2.777h-3.501v-2.777ZM190.324 146.207h3.501v2.777h-3.501v-2.777ZM190.324 123.158h3.501v3.502h-3.501v-3.502ZM190.324 100.105h3.501v4.226h-3.501v-4.226ZM190.324 77.052h3.501v4.95h-3.501v-4.95ZM190.324 54h3.501v5.672h-3.501V54ZM190.324 30.95h3.501v6.397h-3.501v-6.396ZM190.324 7.898h3.501v7.12h-3.501v-7.12ZM167.999 303.226h2.778v7.12h-2.778v-7.12ZM167.999 280.897h2.778v6.396h-2.778v-6.396ZM167.999 258.568h2.778v5.672h-2.778v-5.672ZM167.999 236.243h2.778v4.949h-2.778v-4.949ZM167.999 213.914h2.778v4.225h-2.778v-4.225ZM167.999 191.589h2.778v3.501h-2.778v-3.501ZM167.999 169.26h2.778v2.777h-2.778v-2.777ZM167.999 146.207h2.778v2.777h-2.778v-2.777ZM167.999 123.158h2.778v3.502h-2.778v-3.502ZM167.999 100.105h2.778v4.226h-2.778v-4.226ZM167.999 77.052h2.778v4.95h-2.778v-4.95ZM167.999 54h2.778v5.672h-2.778V54ZM167.999 30.95h2.778v6.397h-2.778v-6.396ZM167.999 7.898h2.778v7.12h-2.778v-7.12Z"/></g><path fill="#fff" fill-rule="evenodd" d="M78.558 147.536c-2.142 0-2.694-.552-2.694-2.694 0 2.142-.552 2.694-2.694 2.694 2.142 0 2.694.551 2.694 2.694 0-2.143.552-2.694 2.694-2.694Zm2.967-.526c0 4.922 1.266 6.187 6.188 6.187-4.922 0-6.188 1.266-6.188 6.188 0-4.922-1.265-6.188-6.187-6.188 4.922 0 6.188-1.265 6.188-6.187Zm210.928 13.738a3.923 3.923 0 0 0-2.057-.564h-13.598a.539.539 0 0 1-.398-.154.496.496 0 0 1-.153-.363v-4.353c0-.159.051-.291.153-.394a.529.529 0 0 1 .398-.154h17.707a3.682 3.682 0 0 0-3.681-3.682h-11.922l-2.655 3.682h-3.652v5.02c0 .753.184 1.437.551 2.057.364.62.856 1.116 1.476 1.488.62.377 1.304.565 2.056.565h13.568c.163 0 .3.051.411.154a.47.47 0 0 1 .167.363h.03v4.353a.54.54 0 0 1-.154.394.528.528 0 0 1-.398.153h-17.707a3.681 3.681 0 0 0 3.681 3.682h11.922l2.656-3.682h3.651v-5.02c0-.752-.188-1.432-.564-2.052a4.377 4.377 0 0 0-1.492-1.493h.004Zm-41.581 11.011v-20.67h3.652v16.762l14.086-16.762h4.832l-18.033 21.466a1.24 1.24 0 0 1-.945.44h-2.356a1.234 1.234 0 0 1-1.236-1.236Zm-29.385-20.118c.62.363 1.116.859 1.492 1.488.377.628.565 1.317.565 2.069v13.688c0 .748-.193 1.441-.565 2.07a4.187 4.187 0 0 1-1.492 1.488 3.955 3.955 0 0 1-2.053.551h-17.797v-18.22h3.618l2.66-3.686h11.519c.749 0 1.433.184 2.053.552Zm-1.796 17.523a.53.53 0 0 0 .167-.398v-13.448a.506.506 0 0 0-.167-.393.58.58 0 0 0-.41-.154h-13.449a.58.58 0 0 0-.41.154.513.513 0 0 0-.167.393v13.448c0 .163.056.295.167.398a.6.6 0 0 0 .41.15h13.449a.6.6 0 0 0 .41-.15Zm11.156-14.24a.54.54 0 0 0-.153.394h-.005v8.629l2.63-3.763h10.575v3.801h-12.653a.529.529 0 0 0-.552.548v8.424l2.63-3.644h13.803v3.682h-20.11V154.77h3.656l2.655-3.681h13.804v3.681h-15.882a.529.529 0 0 0-.398.154ZM84.45 172.996 66.419 151.53a1.242 1.242 0 0 0-.945-.441h-2.356c-.684 0-1.236.552-1.236 1.236v20.671h3.652v-5.32c0-.158.051-.29.154-.393a.523.523 0 0 1 .398-.154h8.607l4.93 5.867h4.829Zm-16.261-9.01-2.656 2.857v-10.614l6.517 7.757h-3.861ZM53 151.089v21.907h3.622v-21.907H53Zm59.869 2.083a4.389 4.389 0 0 0-1.492-1.488 3.862 3.862 0 0 0-2.052-.565H97.8l-2.638 3.657h-3.635v18.22h3.652v-7.085c0-.163.052-.296.154-.394a.528.528 0 0 1 .402-.158l13.585-.03a3.97 3.97 0 0 0 2.053-.547 4.226 4.226 0 0 0 1.492-1.493 3.892 3.892 0 0 0 .565-2.039v-6.021c0-.753-.188-1.437-.565-2.057h.004Zm-3.117 7.928a.498.498 0 0 1-.167.393.594.594 0 0 1-.41.154H98.63l-3.45 3.712v-10.04c0-.142.055-.27.166-.381a.52.52 0 0 1 .38-.167h13.449c.158 0 .295.056.41.167a.523.523 0 0 1 .167.381v5.781Zm27.123-9.463a4.215 4.215 0 0 1 1.489 1.492c.376.629.564 1.317.564 2.07v17.797h-3.682v-7.518h-14.012c-.167 0-.3.052-.402.159a.527.527 0 0 0-.159.402v6.957h-3.651v-17.797c0-.146.008-.287.021-.424h3.618l2.655-3.686h11.503c.752 0 1.436.184 2.056.548Zm-12.806 10.194h11.177v-6.513a.515.515 0 0 0-.166-.397.598.598 0 0 0-.411-.15h-13.448a.561.561 0 0 0-.381.15.516.516 0 0 0-.167.397v10.16h.005l3.391-3.647Zm39.395 2.951a4.237 4.237 0 0 0 1.493-1.493c.372-.628.56-1.308.56-2.039v-6.021a3.92 3.92 0 0 0-.56-2.057 4.4 4.4 0 0 0-1.493-1.488 3.882 3.882 0 0 0-2.052-.565h-11.524l-2.639 3.657h-3.639v18.22h3.652v-7.081a.533.533 0 0 1 .552-.556h.008l7.094-.017 6.402 7.654h4.109v-.851l-5.743-6.812h1.728a4.032 4.032 0 0 0 2.052-.551Zm-12.76-3.135-3.442 3.703v-4.165h.004c-.004-.025-.004-.055-.004-.085v-5.781c0-.142.056-.27.167-.381a.527.527 0 0 1 .381-.167h13.448c.162 0 .299.056.41.167a.523.523 0 0 1 .167.381v5.781a.498.498 0 0 1-.167.393.58.58 0 0 1-.41.154h-10.554Zm39.139-10.01a4.215 4.215 0 0 1 1.489 1.492c.376.629.564 1.317.564 2.07v17.797h-3.682v-7.518h-14.012a.536.536 0 0 0-.561.556v6.962h-3.651v-17.797c0-.146.008-.287.021-.424h3.618l2.659-3.686h11.499c.752 0 1.436.184 2.056.548Zm-12.806 10.194h11.177v-6.513a.515.515 0 0 0-.166-.397.598.598 0 0 0-.411-.15h-13.448a.561.561 0 0 0-.381.15.516.516 0 0 0-.167.397v10.16h.005l3.391-3.647Z" clip-rule="evenodd"/></g><defs><radialGradient id="c" cx="0" cy="0" r="1" gradientTransform="matrix(0 524.467 -561.745 0 501.664 321.666)" gradientUnits="userSpaceOnUse"><stop stop-color="#CEC9F5"/><stop offset=".344" stop-color="#9B70EE"/><stop offset=".75" stop-color="#422288"/><stop offset="1" stop-color="#03020A"/></radialGradient><radialGradient id="e" cx="0" cy="0" r="1" gradientTransform="matrix(0 524.467 -561.745 0 501.664 321.666)" gradientUnits="userSpaceOnUse"><stop stop-color="#CEC9F5"/><stop offset=".344" stop-color="#9B70EE"/><stop offset=".75" stop-color="#422288"/><stop offset="1" stop-color="#03020A"/></radialGradient><filter id="b" width="1299.91" height="1262.59" x="-148.292" y="-309.626" color-interpolation-filters="sRGB" filterUnits="userSpaceOnUse"><feFlood flood-opacity="0" result="BackgroundImageFix"/><feBlend in="SourceGraphic" in2="BackgroundImageFix" result="shape"/><feGaussianBlur result="effect1_foregroundBlur_617_3851" stdDeviation="48.594"/></filter><filter id="d" width="1299.91" height="1262.59" x="-148.292" y="-309.626" color-interpolation-filters="sRGB" filterUnits="userSpaceOnUse"><feFlood flood-opacity="0" result="BackgroundImageFix"/><feBlend in="SourceGraphic" in2="BackgroundImageFix" result="shape"/><feGaussianBlur result="effect1_foregroundBlur_617_3851" stdDeviation="48.594"/></filter><clipPath id="a"><path fill="#fff" d="M0 0h347v318H0z"/></clipPath></defs></svg>
