<svg xmlns="http://www.w3.org/2000/svg" width="694" height="409" viewBox="0 0 694 409" fill="none"><g clip-path="url(#a)"><path fill="#8860E6" d="M0 0h694v408.638H0z"/><path fill="#fff" fill-opacity=".05" fill-rule="evenodd" d="M622.699-54.826h-87.595L35.245 415.79h87.545L622.699-54.826ZM124.121 220.048-140.501 46.101c-8.724-5.727-9.897-15.981-2.551-22.83l25.253-23.67c3.928-3.686 9.693-5.808 15.815-5.808l468.126-.601-51.781 48.583-365.635.52L163.352 183.4l-39.129 36.688-.102-.04Zm413.734-79.579 264.622 173.947c8.724 5.727 9.897 15.981 2.551 22.83l-25.253 23.67c-3.928 3.685-9.694 5.808-15.816 5.808l-468.125.601 51.781-48.584 365.635-.52-214.626-141.105 39.129-36.688.102.041Zm127.71-165.896c0 66.727-21.887 83.91-106.88 83.91 84.993 0 106.88 17.182 106.88 83.909 0-66.727 21.886-83.91 106.879-83.91-84.993 0-106.879-17.182-106.879-83.91Zm51.221 7.172c37.038 0 46.578-7.49 46.578-36.568 0 29.078 9.54 36.568 46.578 36.568-37.038 0-46.578 7.49-46.578 36.568 0-29.078-9.54-36.568-46.578-36.568Z" clip-rule="evenodd"/></g><defs><clipPath id="a"><path fill="#fff" d="M0 0h694v408.638H0z"/></clipPath></defs></svg>
